<?xml version="1.0" encoding="utf-8"?>
<!-- Generator: Adobe Illustrator 26.0.1, SVG Export Plug-In . SVG Version: 6.00 Build 0)  -->
<svg version="1.1" id="Layer_1" xmlns="http://www.w3.org/2000/svg" xmlns:xlink="http://www.w3.org/1999/xlink" x="0px" y="0px"
	 viewBox="0 0 1080 1080" style="enable-background:new 0 0 1080 1080;" xml:space="preserve">
<style type="text/css">
	.st0{fill:#FFFFFF;}
	.st1{font-family:'AlegreyaSans-Bold';}
	.st2{font-size:192.9702px;}
</style>
<g>
	<g>
		<g>
			<path class="st0" d="M559.09,310.58c0.02-12.37,9.24-21.8,21.2-21.71c11.77,0.09,21.14,9.87,21.12,22.02
				c-0.02,12.03-9.63,21.93-21.27,21.92C568.12,332.8,559.06,323.23,559.09,310.58z"/>
			<path class="st0" d="M559.06,510.9c0.06-12.36,9.31-21.91,21.14-21.81c11.76,0.1,21.26,9.93,21.21,21.95
				c-0.05,12.31-9.68,22.12-21.54,21.96C567.89,532.83,559,523.4,559.06,510.9z"/>
			<path class="st0" d="M520.93,310.82c0.03,12.46-8.99,21.96-20.87,21.99c-11.64,0.03-21.33-9.81-21.46-21.79
				c-0.12-12.11,9.69-22.25,21.44-22.14C512.13,288.99,520.9,298.2,520.93,310.82z"/>
			<path class="st0" d="M520.93,510.98c1,11.09-8.6,22.27-21.13,22.05c-11.73-0.21-21.18-9.96-21.18-22.04
				c0.01-11.97,9.59-21.63,21.34-21.93C510.64,488.79,521.8,498.76,520.93,510.98z"/>
			<path class="st0" d="M464.3,452.49c-0.1,12.38-9.39,22.03-21.16,21.99c-11.85-0.04-21.21-10.03-21.08-22.5
				c0.13-12.08,9.43-21.46,21.25-21.44C455.36,430.56,464.4,440.02,464.3,452.49z"/>
			<path class="st0" d="M636.91,391.2c-11.13,0.91-21.31-9.33-21.22-21.28c0.1-12.81,9.14-22.5,21.02-22.49
				c12.03,0,21.25,9.68,21.23,22.27C657.92,381.87,648.74,391.25,636.91,391.2z"/>
			<path class="st0" d="M443.1,391.18c-11.98-0.01-21.06-9.4-21.04-21.78c0.02-12.24,9.43-22.02,21.13-21.97
				c12,0.05,21.13,9.67,21.11,22.26C464.28,382.15,455.37,391.19,443.1,391.18z"/>
			<path class="st0" d="M615.7,452.23c-0.01-12.17,9.06-21.59,20.93-21.72c12.04-0.14,21.35,9.51,21.32,22.1
				c-0.03,12.1-9.71,22.04-21.33,21.88C624.85,474.33,615.72,464.62,615.7,452.23z"/>
			<path class="st0" d="M678.28,311.13c8.5,0.08,14.97,6.85,14.94,15.63c-0.03,8.87-6.79,15.72-15.4,15.61
				c-8.38-0.11-14.85-7.09-14.72-15.87C663.22,317.64,669.74,311.04,678.28,311.13z"/>
			<path class="st0" d="M677.96,510.77c-8.47-0.05-14.95-6.88-14.88-15.7c0.07-8.87,6.55-15.55,15.04-15.52
				c8.68,0.03,15.17,6.87,15.07,15.87C693.1,504.18,686.51,510.82,677.96,510.77z"/>
			<path class="st0" d="M401.72,510.79c-8.24-0.06-14.89-7.11-14.87-15.79c0.02-8.74,6.93-15.64,15.54-15.5
				c8.25,0.14,14.61,6.95,14.6,15.62C416.98,504.16,410.46,510.85,401.72,510.79z"/>
			<path class="st0" d="M402.18,311.14c8.34,0.01,14.79,6.7,14.79,15.34c0.01,9.2-6.35,15.91-15.04,15.88
				c-8.43-0.03-15.02-6.86-15.07-15.59C386.81,317.94,393.49,311.12,402.18,311.14z"/>
			<path class="st0" d="M636.33,268.02c0,8.87-6.55,15.84-14.84,15.79c-8.43-0.05-15.05-6.96-15.04-15.7
				c0.01-9.04,6.24-15.54,14.96-15.6C630.12,252.45,636.33,258.9,636.33,268.02z"/>
			<path class="st0" d="M710.09,369.6c0,9.14-6.15,15.49-14.98,15.49c-8.46,0-15-6.9-14.9-15.71c0.1-8.94,6.54-15.57,15.11-15.54
				C703.84,353.85,710.1,360.53,710.09,369.6z"/>
			<path class="st0" d="M473.56,268.47c-0.19,8.75-6.68,15.43-14.94,15.37c-8.59-0.06-15.12-7.11-14.97-16.17
				c0.15-8.91,6.63-15.29,15.39-15.13C467.78,252.69,473.76,259.25,473.56,268.47z"/>
			<path class="st0" d="M369.8,369.55c0.02-9.14,6.48-15.8,15.26-15.71c8.29,0.08,14.71,6.88,14.71,15.58
				c0,8.97-6.42,15.71-14.95,15.69C376.12,385.09,369.78,378.53,369.8,369.55z"/>
			<path class="st0" d="M636.33,554.02c-0.06,9.02-6.41,15.47-15.1,15.36c-8.58-0.11-14.96-6.91-14.82-15.78
				c0.14-8.72,6.97-15.67,15.24-15.52C630.13,538.23,636.4,545.03,636.33,554.02z"/>
			<path class="st0" d="M579.77,587.12c-8.57-0.19-14.92-7.09-14.68-15.92c0.25-8.88,6.91-15.47,15.4-15.24
				c8.49,0.23,15.18,7.44,14.82,15.96C594.95,580.86,588.34,587.32,579.77,587.12z"/>
			<path class="st0" d="M369.81,452.35c0.02-8.88,6.61-15.79,14.98-15.71c8.45,0.09,15.04,7.01,14.99,15.76
				c-0.05,8.91-6.5,15.61-15.04,15.62C376.24,468.03,369.79,461.26,369.81,452.35z"/>
			<path class="st0" d="M514.95,571.56c-0.21,9.34-6.55,15.76-15.33,15.53c-8.71-0.22-14.82-6.85-14.65-15.89
				c0.16-8.88,6.83-15.47,15.39-15.22C508.85,556.22,515.14,562.94,514.95,571.56z"/>
			<path class="st0" d="M565.12,250.42c-0.03-9.17,6.32-15.65,15.3-15.61c8.28,0.04,14.84,6.83,14.92,15.45
				c0.09,8.62-6.69,15.64-15.13,15.68C571.66,265.99,565.15,259.29,565.12,250.42z"/>
			<path class="st0" d="M473.57,553.62c-0.07,9.5-6.12,15.8-15.11,15.74c-8.58-0.05-14.84-6.73-14.78-15.77
				c0.05-8.62,6.66-15.55,14.8-15.52C467.15,538.11,473.63,544.8,473.57,553.62z"/>
			<path class="st0" d="M710.07,452.65c-0.02,8.72-6.4,15.36-14.76,15.38c-8.52,0.02-15.07-6.73-15.11-15.56
				c-0.03-8.76,6.59-15.79,14.94-15.84C703.68,436.57,710.1,443.45,710.07,452.65z"/>
			<path class="st0" d="M514.93,250.4c-0.03,8.9-6.49,15.6-15,15.58c-8.59-0.03-14.96-6.71-14.95-15.67
				c0.02-8.89,6.32-15.52,14.67-15.44C508.89,234.95,514.97,241.13,514.93,250.4z"/>
			<path class="st0" d="M500.05,219.95c-7.24,0-12.78-5.55-12.77-12.81c0.01-7.27,5.54-12.92,12.69-12.96
				c7.09-0.04,12.56,5.69,12.5,13.08C512.42,214.55,507.14,219.95,500.05,219.95z"/>
			<path class="st0" d="M500.02,602.01c7.3,0.03,12.57,5.54,12.45,13c-0.12,7.3-5.42,12.71-12.46,12.74
				c-7.07,0.03-12.67-5.66-12.72-12.92C487.25,607.58,492.81,601.98,500.02,602.01z"/>
			<path class="st0" d="M592.75,207.27c-0.04,7.31-5.55,12.74-12.83,12.67c-7.02-0.07-12.31-5.56-12.33-12.81
				c-0.02-7.26,5.61-13.02,12.66-12.96C587.37,194.24,592.79,199.92,592.75,207.27z"/>
			<path class="st0" d="M580.08,601.99c7.2-0.04,12.67,5.5,12.66,12.84c-0.01,7.28-5.55,12.93-12.68,12.92
				c-6.92-0.01-12.36-5.56-12.49-12.75C567.44,607.62,572.81,602.03,580.08,601.99z"/>
			<path class="st0" d="M737.11,465.23c-7.21,0-12.68-5.52-12.71-12.82c-0.03-7.24,5.59-12.92,12.72-12.86
				c7.05,0.06,12.73,5.93,12.61,13.04C749.6,459.6,743.98,465.23,737.11,465.23z"/>
			<path class="st0" d="M342.89,439.55c6.99-0.07,12.55,5.42,12.68,12.53c0.14,7.26-5.29,13.03-12.39,13.17
				c-7.11,0.15-12.79-5.44-12.92-12.7C330.15,445.46,335.82,439.62,342.89,439.55z"/>
			<path class="st0" d="M342.91,382.33c-6.86,0.02-12.55-5.67-12.63-12.65c-0.09-7.12,5.62-13.07,12.56-13.1
				c7.08-0.04,12.8,5.72,12.76,12.85C355.55,376.78,350.11,382.31,342.91,382.33z"/>
			<path class="st0" d="M736.56,382.33c-7.09-0.27-12.49-6.23-12.14-13.42c0.35-7.33,6.08-12.67,13.23-12.33
				c6.77,0.32,12.3,6.38,12.08,13.24C749.5,376.95,743.56,382.6,736.56,382.33z"/>
			<path class="st0" d="M359.98,525.32c0.18-7.37,5.8-12.76,13.06-12.53c6.7,0.21,12.03,6.01,11.92,12.97
				c-0.12,7.54-5.59,13.06-12.74,12.85C364.88,538.39,359.8,532.88,359.98,525.32z"/>
			<path class="st0" d="M638.6,237.26c0.04-7.22,5.55-12.88,12.43-12.78c7.08,0.1,12.47,5.91,12.36,13.31
				c-0.11,7.36-5.42,12.71-12.52,12.61C643.5,250.3,638.56,245,638.6,237.26z"/>
			<path class="st0" d="M372.61,283.33c6.97-0.1,12.29,5.42,12.32,12.79c0.02,7.31-5.19,12.81-12.27,12.93
				c-7.08,0.12-12.55-5.29-12.66-12.52C359.88,288.67,364.88,283.44,372.61,283.33z"/>
			<path class="st0" d="M638.61,583.91c0.07-7.35,5.29-12.51,12.56-12.42c7.18,0.09,12.24,5.43,12.2,12.86
				c-0.04,7.63-5.28,12.93-12.63,12.78C643.33,596.99,638.54,591.77,638.61,583.91z"/>
			<path class="st0" d="M429,250.38c-7.02,0.03-12.34-5.48-12.36-12.8c-0.02-7.35,5.61-13.2,12.61-13.1
				c6.85,0.1,12.29,5.82,12.32,12.98C441.6,245.01,436.41,250.35,429,250.38z"/>
			<path class="st0" d="M441.56,584.4c-0.05,7.49-5.09,12.71-12.3,12.74c-7.41,0.03-12.7-5.38-12.58-12.88
				c0.12-7.62,5.33-12.84,12.72-12.74C436.58,571.62,441.61,576.93,441.56,584.4z"/>
			<path class="st0" d="M720,296.02c0.01,7.6-5.15,13.01-12.43,13.02c-7.23,0.02-12.3-5.44-12.25-13.18
				c0.05-7.4,5.18-12.59,12.45-12.62C714.91,283.22,719.99,288.53,720,296.02z"/>
			<path class="st0" d="M720.02,525.86c-0.07,7.58-5.35,12.92-12.67,12.79c-7-0.12-12.14-5.71-12.03-13.07
				c0.11-7.4,5.33-12.83,12.32-12.83C714.91,512.76,720.09,518.25,720.02,525.86z"/>
		</g>
	</g>
	<text transform="matrix(1 0 0 1 333.0442 833.3364)" class="st0 st1 st2">acem</text>
</g>
</svg>
