<?xml version="1.0" encoding="utf-8"?>
<!-- Generator: Adobe Illustrator 26.0.1, SVG Export Plug-In . SVG Version: 6.00 Build 0)  -->
<svg version="1.1" id="Layer_1" xmlns="http://www.w3.org/2000/svg" xmlns:xlink="http://www.w3.org/1999/xlink" x="0px" y="0px"
	 viewBox="0 0 1080 1080" style="enable-background:new 0 0 1080 1080;" xml:space="preserve">
<style type="text/css">
	.st0{fill:#FFFFFF;}
</style>
<g>
	<g>
		<path class="st0" d="M569.12,386.83c0.04-18.87,14.1-33.27,32.35-33.12c17.95,0.14,32.26,15.06,32.23,33.6
			c-0.03,18.35-14.69,33.46-32.45,33.45C582.91,420.74,569.09,406.15,569.12,386.83z"/>
		<path class="st0" d="M569.09,692.48c0.09-18.86,14.21-33.42,32.25-33.27c17.94,0.15,32.44,15.15,32.37,33.49
			c-0.07,18.78-14.77,33.76-32.87,33.5C582.55,725.94,568.99,711.55,569.09,692.48z"/>
		<path class="st0" d="M510.9,387.21c0.04,19-13.72,33.51-31.84,33.55c-17.77,0.04-32.55-14.97-32.74-33.24
			c-0.19-18.48,14.78-33.95,32.71-33.79C497.48,353.9,510.85,367.95,510.9,387.21z"/>
		<path class="st0" d="M510.9,692.59c1.53,16.93-13.12,33.98-32.24,33.64c-17.9-0.32-32.32-15.19-32.31-33.63
			c0.01-18.27,14.63-33,32.55-33.46C495.2,658.74,512.23,673.96,510.9,692.59z"/>
		<path class="st0" d="M424.5,603.36c-0.16,18.88-14.33,33.61-32.29,33.55c-18.08-0.05-32.37-15.31-32.16-34.33
			c0.2-18.44,14.38-32.74,32.43-32.71C410.87,569.9,424.66,584.33,424.5,603.36z"/>
		<path class="st0" d="M687.86,509.85c-16.98,1.39-32.52-14.23-32.37-32.47c0.16-19.55,13.95-34.32,32.07-34.32
			c18.35,0,32.43,14.77,32.4,33.99C719.92,495.6,705.91,509.92,687.86,509.85z"/>
		<path class="st0" d="M392.16,509.82c-18.29-0.02-32.13-14.35-32.1-33.23c0.03-18.67,14.39-33.6,32.25-33.53
			c18.31,0.07,32.24,14.76,32.21,33.96C424.48,496.04,410.87,509.84,392.16,509.82z"/>
		<path class="st0" d="M655.5,602.96c-0.02-18.57,13.82-32.93,31.94-33.14c18.37-0.21,32.58,14.52,32.54,33.72
			c-0.04,18.46-14.82,33.63-32.54,33.39C669.46,636.69,655.53,621.87,655.5,602.96z"/>
		<path class="st0" d="M750.98,387.67c12.96,0.13,22.84,10.46,22.79,23.84c-0.05,13.54-10.36,23.99-23.49,23.81
			c-12.78-0.17-22.66-10.82-22.47-24.22C728,397.61,737.95,387.55,750.98,387.67z"/>
		<path class="st0" d="M750.49,692.28c-12.92-0.07-22.81-10.5-22.7-23.95c0.11-13.54,9.99-23.73,22.95-23.68
			c13.24,0.05,23.14,10.48,22.99,24.21C773.6,682.22,763.53,692.35,750.49,692.28z"/>
		<path class="st0" d="M329.03,692.32c-12.58-0.08-22.72-10.85-22.69-24.09c0.03-13.34,10.58-23.86,23.71-23.64
			c12.59,0.21,22.29,10.6,22.28,23.84C352.3,682.2,342.35,692.41,329.03,692.32z"/>
		<path class="st0" d="M329.72,387.69c12.73,0.02,22.56,10.22,22.57,23.41c0.01,14.04-9.69,24.28-22.95,24.22
			c-12.86-0.05-22.92-10.46-22.99-23.79C306.27,398.07,316.47,387.67,329.72,387.69z"/>
		<path class="st0" d="M686.97,321.91c0,13.54-9.99,24.17-22.64,24.09c-12.86-0.08-22.96-10.62-22.95-23.96
			c0.01-13.79,9.52-23.7,22.83-23.8C677.5,298.14,686.97,307.99,686.97,321.91z"/>
		<path class="st0" d="M799.52,476.88c-0.01,13.94-9.38,23.63-22.85,23.63c-12.9,0-22.88-10.52-22.74-23.98
			c0.15-13.63,9.98-23.75,23.06-23.72C789.97,452.86,799.53,463.06,799.52,476.88z"/>
		<path class="st0" d="M438.63,322.59c-0.29,13.35-10.19,23.54-22.79,23.45c-13.11-0.09-23.07-10.85-22.84-24.68
			c0.22-13.6,10.12-23.32,23.48-23.08C429.81,298.52,438.94,308.53,438.63,322.59z"/>
		<path class="st0" d="M280.32,476.82c0.03-13.95,9.89-24.1,23.28-23.98c12.65,0.12,22.44,10.49,22.44,23.77
			c0,13.68-9.8,23.97-22.8,23.94C289.97,500.53,280.29,490.51,280.32,476.82z"/>
		<path class="st0" d="M686.98,758.26c-0.09,13.76-9.78,23.61-23.04,23.43c-13.09-0.17-22.82-10.54-22.61-24.08
			c0.21-13.3,10.63-23.91,23.25-23.67C677.52,734.18,687.07,744.55,686.98,758.26z"/>
		<path class="st0" d="M600.68,808.77c-13.07-0.29-22.77-10.81-22.4-24.29c0.37-13.55,10.54-23.6,23.5-23.25
			c12.95,0.36,23.16,11.34,22.61,24.35C623.83,799.22,613.75,809.07,600.68,808.77z"/>
		<path class="st0" d="M280.33,603.15c0.02-13.54,10.09-24.1,22.86-23.96c12.9,0.13,22.94,10.69,22.87,24.05
			c-0.07,13.6-9.91,23.82-22.95,23.83C290.15,627.07,280.3,616.74,280.33,603.15z"/>
		<path class="st0" d="M501.78,785.03c-0.32,14.25-9.99,24.04-23.38,23.7c-13.29-0.34-22.61-10.45-22.36-24.25
			c0.25-13.54,10.42-23.6,23.48-23.23C492.47,761.62,502.08,771.88,501.78,785.03z"/>
		<path class="st0" d="M578.33,295.05c-0.05-13.99,9.64-23.88,23.35-23.82c12.63,0.06,22.64,10.42,22.77,23.58
			c0.13,13.15-10.21,23.86-23.09,23.92C588.3,318.8,578.37,308.59,578.33,295.05z"/>
		<path class="st0" d="M438.64,757.66c-0.11,14.49-9.33,24.1-23.05,24.02c-13.09-0.08-22.64-10.26-22.55-24.06
			c0.08-13.15,10.16-23.73,22.58-23.68C428.84,733.99,438.74,744.19,438.64,757.66z"/>
		<path class="st0" d="M799.49,603.6c-0.04,13.3-9.76,23.44-22.52,23.47c-13,0.03-23-10.27-23.05-23.74
			c-0.05-13.37,10.06-24.09,22.79-24.18C789.73,579.06,799.52,589.57,799.49,603.6z"/>
		<path class="st0" d="M501.75,295.01c-0.05,13.58-9.9,23.81-22.88,23.77c-13.11-0.04-22.83-10.24-22.81-23.9
			c0.02-13.56,9.64-23.68,22.38-23.56C492.54,271.46,501.81,280.88,501.75,295.01z"/>
		<path class="st0" d="M479.05,248.56c-11.05,0-19.49-8.47-19.48-19.54c0.01-11.1,8.46-19.72,19.37-19.77
			c10.82-0.05,19.16,8.68,19.07,19.95C497.93,240.32,489.86,248.56,479.05,248.56z"/>
		<path class="st0" d="M479,831.49c11.13,0.04,19.18,8.45,18.99,19.83c-0.19,11.14-8.26,19.39-19.01,19.44
			c-10.79,0.04-19.34-8.64-19.4-19.72C459.51,839.99,468,831.44,479,831.49z"/>
		<path class="st0" d="M620.48,229.22c-0.07,11.15-8.46,19.44-19.57,19.33c-10.72-0.1-18.79-8.49-18.81-19.55
			c-0.03-11.08,8.56-19.87,19.31-19.77C612.27,209.34,620.54,218.01,620.48,229.22z"/>
		<path class="st0" d="M601.16,831.46c10.99-0.06,19.33,8.4,19.32,19.59c-0.01,11.1-8.47,19.73-19.34,19.72
			c-10.55-0.01-18.85-8.49-19.06-19.46C581.87,840.04,590.06,831.52,601.16,831.46z"/>
		<path class="st0" d="M840.74,622.8c-11,0-19.35-8.42-19.39-19.56c-0.04-11.04,8.53-19.71,19.4-19.63
			c10.76,0.09,19.42,9.05,19.23,19.89C859.79,614.2,851.23,622.79,840.74,622.8z"/>
		<path class="st0" d="M239.26,583.62c10.67-0.1,19.15,8.27,19.35,19.12c0.21,11.08-8.06,19.87-18.9,20.1
			c-10.85,0.22-19.52-8.31-19.71-19.38C219.82,592.63,228.47,583.73,239.26,583.62z"/>
		<path class="st0" d="M239.29,496.31c-10.47,0.03-19.14-8.66-19.28-19.3c-0.14-10.86,8.57-19.94,19.17-19.99
			c10.8-0.06,19.53,8.73,19.46,19.61C258.58,487.85,250.28,496.28,239.29,496.31z"/>
		<path class="st0" d="M839.9,496.32c-10.82-0.41-19.05-9.51-18.53-20.48c0.53-11.18,9.28-19.33,20.19-18.81
			c10.33,0.49,18.76,9.73,18.43,20.2C859.64,488.11,850.57,496.72,839.9,496.32z"/>
		<path class="st0" d="M265.34,714.48c0.28-11.24,8.86-19.47,19.93-19.12c10.23,0.32,18.36,9.17,18.19,19.8
			c-0.18,11.51-8.53,19.93-19.44,19.6C272.81,734.42,265.06,726.01,265.34,714.48z"/>
		<path class="st0" d="M690.44,274.98c0.07-11.02,8.46-19.66,18.96-19.5c10.8,0.16,19.03,9.02,18.87,20.3
			c-0.17,11.23-8.27,19.4-19.1,19.25C697.92,294.87,690.37,286.79,690.44,274.98z"/>
		<path class="st0" d="M284.61,345.26c10.64-0.16,18.76,8.27,18.8,19.51c0.04,11.16-7.92,19.54-18.73,19.72
			c-10.8,0.18-19.14-8.07-19.31-19.1C265.18,353.42,272.81,345.44,284.61,345.26z"/>
		<path class="st0" d="M690.46,803.88c0.11-11.22,8.07-19.09,19.16-18.95c10.95,0.14,18.68,8.29,18.62,19.63
			c-0.07,11.63-8.06,19.72-19.27,19.5C697.65,823.83,690.34,815.86,690.46,803.88z"/>
		<path class="st0" d="M370.65,294.99c-10.71,0.04-18.83-8.36-18.86-19.53c-0.03-11.21,8.56-20.13,19.24-19.98
			c10.46,0.15,18.75,8.88,18.79,19.8C389.87,286.8,381.95,294.95,370.65,294.99z"/>
		<path class="st0" d="M389.8,804.62c-0.08,11.43-7.77,19.4-18.77,19.44c-11.3,0.05-19.38-8.21-19.2-19.65
			c0.18-11.62,8.14-19.59,19.41-19.44C382.21,785.11,389.88,793.23,389.8,804.62z"/>
		<path class="st0" d="M814.63,364.63c0.02,11.59-7.86,19.84-18.96,19.87c-11.04,0.03-18.77-8.3-18.69-20.11
			c0.08-11.29,7.9-19.21,19-19.26C806.86,345.09,814.61,353.19,814.63,364.63z"/>
		<path class="st0" d="M814.66,715.31c-0.11,11.57-8.17,19.71-19.33,19.51c-10.68-0.19-18.53-8.72-18.36-19.95
			c0.17-11.3,8.13-19.58,18.8-19.57C806.87,695.32,814.77,703.68,814.66,715.31z"/>
	</g>
</g>
</svg>
