<?xml version="1.0" encoding="utf-8"?>
<!-- Generator: Adobe Illustrator 26.0.1, SVG Export Plug-In . SVG Version: 6.00 Build 0)  -->
<svg version="1.1" id="Layer_1" xmlns="http://www.w3.org/2000/svg" xmlns:xlink="http://www.w3.org/1999/xlink" x="0px" y="0px"
	 viewBox="0 0 1080 1080" style="enable-background:new 0 0 1080 1080;" xml:space="preserve">
<style type="text/css">
	.st0{fill:#FFFFFF;}
	.st1{fill:#E4077F;}
	.st2{font-family:'AlegreyaSans-Bold';}
	.st3{font-size:99.1601px;}
</style>
<g>
	<g>
		<path class="st0" d="M550.37,236.81c0.01-6.35,5.02-11.2,11.52-11.16c6.39,0.05,11.48,5.07,11.47,11.32
			c-0.01,6.18-5.23,11.27-11.55,11.26C555.28,248.23,550.35,243.32,550.37,236.81z"/>
		<path class="st0" d="M550.35,339.76c0.03-6.35,5.06-11.26,11.48-11.21c6.39,0.05,11.55,5.1,11.52,11.28
			c-0.02,6.32-5.26,11.37-11.7,11.28C555.15,351.02,550.32,346.18,550.35,339.76z"/>
		<path class="st0" d="M529.64,236.94c0.02,6.4-4.88,11.29-11.33,11.3c-6.33,0.01-11.59-5.04-11.65-11.2
			c-0.07-6.23,5.26-11.43,11.65-11.38C524.86,225.72,529.62,230.45,529.64,236.94z"/>
		<path class="st0" d="M529.64,339.79c0.54,5.7-4.67,11.45-11.48,11.33c-6.37-0.11-11.51-5.12-11.5-11.32
			c0-6.15,5.21-11.12,11.59-11.27C524.05,328.39,530.11,333.52,529.64,339.79z"/>
		<path class="st0" d="M498.88,309.74c-0.06,6.36-5.1,11.32-11.49,11.3c-6.44-0.02-11.52-5.16-11.45-11.56
			c0.07-6.21,5.12-11.03,11.54-11.02C494.03,298.47,498.94,303.33,498.88,309.74z"/>
		<path class="st0" d="M592.64,278.25c-6.05,0.47-11.58-4.79-11.52-10.94c0.06-6.58,4.97-11.56,11.42-11.56
			c6.53,0,11.54,4.98,11.53,11.45C604.05,273.45,599.07,278.27,592.64,278.25z"/>
		<path class="st0" d="M487.37,278.23c-6.51-0.01-11.44-4.83-11.43-11.19c0.01-6.29,5.12-11.32,11.48-11.29
			c6.52,0.02,11.48,4.97,11.47,11.44C498.87,273.59,494.03,278.24,487.37,278.23z"/>
		<path class="st0" d="M581.12,309.61c-0.01-6.25,4.92-11.09,11.37-11.16c6.54-0.07,11.6,4.89,11.58,11.36
			c-0.01,6.22-5.28,11.33-11.58,11.25C586.09,320.96,581.13,315.97,581.12,309.61z"/>
		<path class="st0" d="M615.11,237.1c4.62,0.04,8.13,3.52,8.11,8.03c-0.02,4.56-3.69,8.08-8.36,8.02c-4.55-0.06-8.07-3.64-8-8.16
			C606.93,240.44,610.47,237.05,615.11,237.1z"/>
		<path class="st0" d="M614.94,339.69c-4.6-0.02-8.12-3.54-8.08-8.07c0.04-4.56,3.56-7.99,8.17-7.97c4.71,0.02,8.24,3.53,8.19,8.15
			C623.16,336.3,619.58,339.71,614.94,339.69z"/>
		<path class="st0" d="M464.89,339.7c-4.48-0.03-8.09-3.66-8.08-8.11c0.01-4.49,3.77-8.04,8.44-7.96c4.48,0.07,7.94,3.57,7.93,8.03
			C473.18,336.29,469.64,339.73,464.89,339.7z"/>
		<path class="st0" d="M465.14,237.1c4.53,0.01,8.03,3.44,8.03,7.88c0,4.73-3.45,8.18-8.17,8.16c-4.58-0.02-8.16-3.52-8.19-8.01
			C456.79,240.6,460.42,237.09,465.14,237.1z"/>
		<path class="st0" d="M592.32,214.95c0,4.56-3.56,8.14-8.06,8.11c-4.58-0.03-8.18-3.58-8.17-8.07c0.01-4.64,3.39-7.98,8.13-8.02
			C588.95,206.94,592.32,210.26,592.32,214.95z"/>
		<path class="st0" d="M632.39,267.14c0,4.7-3.34,7.96-8.14,7.96c-4.59,0-8.15-3.54-8.1-8.08c0.05-4.59,3.55-8,8.21-7.99
			C628.99,259.05,632.39,262.49,632.39,267.14z"/>
		<path class="st0" d="M503.91,215.18c-0.1,4.5-3.63,7.93-8.11,7.9c-4.67-0.03-8.21-3.65-8.13-8.31c0.08-4.58,3.6-7.86,8.36-7.77
			C500.77,207.07,504.02,210.44,503.91,215.18z"/>
		<path class="st0" d="M447.56,267.12c0.01-4.7,3.52-8.12,8.29-8.08c4.5,0.04,7.99,3.53,7.99,8c0,4.61-3.49,8.07-8.12,8.06
			C450.99,275.1,447.54,271.73,447.56,267.12z"/>
		<path class="st0" d="M592.32,361.91c-0.03,4.63-3.48,7.95-8.2,7.89c-4.66-0.06-8.12-3.55-8.05-8.11c0.08-4.48,3.78-8.05,8.28-7.97
			C588.96,353.8,592.36,357.29,592.32,361.91z"/>
		<path class="st0" d="M561.6,378.92c-4.65-0.1-8.11-3.64-7.97-8.18c0.13-4.57,3.75-7.95,8.37-7.83c4.61,0.12,8.24,3.82,8.05,8.2
			C569.84,375.7,566.26,379.02,561.6,378.92z"/>
		<path class="st0" d="M447.56,309.67c0.01-4.56,3.59-8.12,8.14-8.07c4.59,0.05,8.17,3.6,8.14,8.1c-0.03,4.58-3.53,8.02-8.17,8.03
			C451.05,317.73,447.55,314.24,447.56,309.67z"/>
		<path class="st0" d="M526.39,370.92c-0.12,4.8-3.56,8.1-8.32,7.98c-4.73-0.12-8.05-3.52-7.96-8.17c0.09-4.56,3.71-7.95,8.36-7.82
			C523.08,363.04,526.5,366.5,526.39,370.92z"/>
		<path class="st0" d="M553.64,205.9c-0.02-4.71,3.43-8.04,8.31-8.02c4.5,0.02,8.06,3.51,8.11,7.94c0.05,4.43-3.63,8.04-8.22,8.06
			C557.2,213.9,553.66,210.46,553.64,205.9z"/>
		<path class="st0" d="M503.92,361.71c-0.04,4.88-3.32,8.12-8.21,8.09c-4.66-0.03-8.06-3.46-8.03-8.1c0.03-4.43,3.62-7.99,8.04-7.98
			C500.43,353.74,503.95,357.17,503.92,361.71z"/>
		<path class="st0" d="M632.38,309.82c-0.01,4.48-3.48,7.89-8.02,7.9c-4.63,0.01-8.19-3.46-8.21-8c-0.02-4.5,3.58-8.11,8.11-8.14
			C628.91,301.56,632.39,305.09,632.38,309.82z"/>
		<path class="st0" d="M526.38,205.89c-0.02,4.57-3.52,8.02-8.15,8c-4.67-0.01-8.13-3.45-8.12-8.05c0.01-4.57,3.43-7.98,7.97-7.93
			C523.1,197.95,526.4,201.13,526.38,205.89z"/>
		<path class="st0" d="M518.3,190.24c-3.93,0-6.94-2.85-6.93-6.58c0.01-3.74,3.01-6.64,6.9-6.66c3.85-0.02,6.82,2.92,6.79,6.72
			C525.02,187.47,522.15,190.24,518.3,190.24z"/>
		<path class="st0" d="M518.29,386.57c3.96,0.02,6.83,2.85,6.76,6.68c-0.07,3.75-2.94,6.53-6.77,6.55
			c-3.84,0.02-6.88-2.91-6.91-6.64C511.35,389.43,514.37,386.56,518.29,386.57z"/>
		<path class="st0" d="M568.65,183.73c-0.02,3.75-3.01,6.55-6.97,6.51c-3.81-0.03-6.69-2.86-6.7-6.58
			c-0.01-3.73,3.05-6.69,6.87-6.66C565.73,177.03,568.67,179.95,568.65,183.73z"/>
		<path class="st0" d="M561.77,386.56c3.91-0.02,6.88,2.83,6.88,6.6c0,3.74-3.02,6.64-6.89,6.64c-3.76,0-6.71-2.86-6.78-6.55
			C554.9,389.45,557.82,386.58,561.77,386.56z"/>
		<path class="st0" d="M647.06,316.29c-3.92,0-6.89-2.83-6.9-6.59c-0.02-3.72,3.04-6.64,6.91-6.61c3.83,0.03,6.92,3.05,6.85,6.7
			C653.85,313.39,650.8,316.28,647.06,316.29z"/>
		<path class="st0" d="M432.94,303.09c3.8-0.04,6.82,2.79,6.89,6.44c0.07,3.73-2.87,6.69-6.73,6.77c-3.86,0.08-6.95-2.8-7.02-6.53
			C426.02,306.13,429.09,303.13,432.94,303.09z"/>
		<path class="st0" d="M432.95,273.68c-3.73,0.01-6.82-2.92-6.86-6.5c-0.05-3.66,3.05-6.71,6.82-6.73c3.85-0.02,6.95,2.94,6.93,6.6
			C439.81,270.83,436.86,273.67,432.95,273.68z"/>
		<path class="st0" d="M646.76,273.69c-3.85-0.14-6.78-3.2-6.6-6.9c0.19-3.77,3.3-6.51,7.19-6.33c3.68,0.17,6.68,3.28,6.56,6.8
			C653.79,270.92,650.56,273.82,646.76,273.69z"/>
		<path class="st0" d="M442.22,347.16c0.1-3.79,3.15-6.56,7.1-6.44c3.64,0.11,6.54,3.09,6.48,6.67c-0.06,3.88-3.04,6.71-6.92,6.6
			C444.88,353.88,442.12,351.05,442.22,347.16z"/>
		<path class="st0" d="M593.56,199.14c0.02-3.71,3.01-6.62,6.75-6.57c3.84,0.05,6.78,3.04,6.72,6.84c-0.06,3.78-2.94,6.53-6.8,6.48
			C596.22,205.84,593.53,203.12,593.56,199.14z"/>
		<path class="st0" d="M449.08,222.81c3.79-0.05,6.68,2.78,6.69,6.57c0.01,3.76-2.82,6.58-6.67,6.64c-3.84,0.06-6.82-2.72-6.87-6.43
			C442.17,225.56,444.88,222.87,449.08,222.81z"/>
		<path class="st0" d="M593.56,377.27c0.04-3.78,2.87-6.43,6.82-6.38c3.9,0.05,6.65,2.79,6.63,6.61c-0.02,3.92-2.87,6.64-6.86,6.57
			C596.12,383.99,593.52,381.31,593.56,377.27z"/>
		<path class="st0" d="M479.71,205.88c-3.81,0.01-6.7-2.82-6.72-6.58c-0.01-3.78,3.05-6.78,6.85-6.73c3.72,0.05,6.67,2.99,6.69,6.67
			C486.55,203.12,483.73,205.87,479.71,205.88z"/>
		<path class="st0" d="M486.53,377.52c-0.03,3.85-2.76,6.53-6.68,6.55c-4.02,0.02-6.9-2.77-6.84-6.62c0.06-3.91,2.9-6.6,6.91-6.55
			C483.83,370.95,486.56,373.69,486.53,377.52z"/>
		<path class="st0" d="M637.77,229.34c0.01,3.9-2.8,6.68-6.75,6.69c-3.93,0.01-6.68-2.79-6.65-6.77c0.03-3.8,2.81-6.47,6.76-6.49
			C635,222.75,637.76,225.48,637.77,229.34z"/>
		<path class="st0" d="M637.78,347.44c-0.04,3.9-2.91,6.64-6.88,6.57c-3.8-0.06-6.6-2.94-6.53-6.72c0.06-3.81,2.89-6.6,6.69-6.59
			C635,340.71,637.82,343.53,637.78,347.44z"/>
	</g>
	<g>
		<g>
			<path class="st0" d="M275.24,467.49c15.44,0,30.87,0,46.31,0c0.32,0.49,0.65,0.99,0.97,1.48c-1.4,0.86-2.7,2.24-4.21,2.51
				c-9.76,1.7-12.39,4.28-12.48,13.46c-0.12,12.46-0.03,24.93-0.03,37.9c23.11,0,45.9,0,69.09,0c0-14.32,0.25-28.38-0.12-42.43
				c-0.15-5.71-4.47-8.34-10.31-8.7c-1.7-0.1-3.46,0.09-5.07-0.31c-1.19-0.3-2.18-1.33-3.26-2.03c1.2-0.73,2.38-2.06,3.6-2.08
				c9.14-0.18,18.29-0.1,27.44-0.1c6.54,0,13.08,0,19.62,0c0.29,0.66,0.58,1.31,0.87,1.97c-1.5,0.87-2.89,2.19-4.52,2.55
				c-8.01,1.76-10.69,4.06-10.74,11.81c-0.19,29.18-0.22,58.36,0.04,87.54c0.08,9.04,2.88,11.17,13.27,12.87
				c1.42,0.23,2.7,1.21,4.04,1.85c-1.45,0.7-2.88,2-4.34,2.01c-15.53,0.15-31.06,0.14-46.58,0.01c-1.58-0.01-3.16-1.11-4.73-1.71
				c1.64-0.73,3.22-1.72,4.94-2.11c2.25-0.5,4.63-0.47,6.94-0.76c5.42-0.69,8.73-3.85,8.83-8.79c0.3-14.46,0.11-28.92,0.11-43.77
				c-23.05,0-45.69,0-68.9,0c0,14.51-0.35,28.93,0.16,43.32c0.22,6.33,5.15,9.2,11.72,9.76c1.45,0.13,2.76,1.64,4.14,2.52
				c-1.4,0.54-2.8,1.53-4.21,1.55c-13.83,0.12-27.65,0.12-41.48-0.02c-1.26-0.01-2.51-1.23-3.76-1.88c1.25-0.72,2.42-1.83,3.77-2.08
				c10.43-1.95,12.64-4.33,12.66-14.6c0.04-27.97,0.04-55.95,0-83.92c-0.01-9.07-1.77-11.05-10.87-13.62
				c-1.44-0.41-2.53-1.93-3.78-2.94C274.66,468.32,274.95,467.9,275.24,467.49z"/>
			<path class="st0" d="M375.81,634.01c4.09-0.29,8.18-0.86,12.27-0.83c17.81,0.09,35.69-0.44,53.42,0.84
				c11.55,0.83,21.64,6.46,27.21,16.82c7.73,14.35,1.76,31.42-13.37,39.5c-2.02,1.08-4.18,1.95-5.39,2.51
				c8.01,8.12,16.07,16.55,24.44,24.69c6.07,5.9,11.96,12.22,19.02,16.87c6.28,4.13,14.05,6.23,21.18,9.17
				c1.53,0.63,3.16,1.03,5.27,1.71c-1.13,1.32-1.47,2.1-1.88,2.13c-17.76,1.5-34.46-0.47-47.76-13.32
				c-8.03-7.76-16.62-15.08-24-23.36c-9.84-11.04-21.77-14.38-36.47-11.16c0,11.12-0.24,22.52,0.12,33.9
				c0.15,4.76,3.53,7.55,8.69,8.13c3.22,0.36,6.42,0.82,10.1,1.3c-3.75,3.76-48.24,4.09-54,0.23c3.83-0.61,6.71-1.21,9.63-1.51
				c4.98-0.52,7.61-3.33,8.46-7.7c0.53-2.75,0.79-5.59,0.8-8.39c0.06-24.16,0.03-48.31,0.04-72.47c0.01-11.01-2.34-16.34-14.4-15.81
				c-1.21,0.05-2.48-1.01-3.72-1.55C375.58,635.14,375.69,634.57,375.81,634.01z M409.17,635.25c0,15.67,0,29.7,0,43.73
				c0,18.45,0,18.45,19.8,15.47c14.19-2.13,22.56-9.26,24.64-21.62c0.7-4.12,0.57-8.43,0.29-12.62
				c-0.78-11.33-7.98-19.99-19.66-22.37C426.47,636.26,418.35,636.14,409.17,635.25z"/>
			<path class="st0" d="M431.79,467.44c16.53,0,33.06,0,49.59,0c0.32,0.53,0.63,1.06,0.95,1.59c-1.41,0.82-2.74,2.15-4.25,2.38
				c-10.33,1.55-13.03,3.81-13.11,13.53c-0.17,20.52-0.42,41.06,0.4,61.56c0.6,15.01,8.54,26.67,23.39,32.63
				c13.73,5.51,27.22,3.87,38.95-5.27c10-7.78,12.83-18.74,13.02-30.31c0.29-17.91,0.22-35.82,0.03-53.73
				c-0.14-12.46-3.29-18.28-15.56-18.28c-1.26,0-2.53-1.57-3.79-2.41c0.19-0.65,0.39-1.3,0.58-1.95c4.53,0,9.07,0,13.6,0
				c9.57,0,19.15-0.07,28.72,0.09c1.27,0.02,2.51,1.25,3.77,1.92c-0.99,0.8-1.86,2.04-3,2.32c-12.27,3.03-14.73,5.81-14.8,17.96
				c-0.1,18.11,0.22,36.23-0.11,54.34c-0.3,17.01-6.38,31.81-22.12,41.22c-17.21,10.3-35.59,10.19-53.56,1.89
				c-17.8-8.22-25.79-22.96-26.33-41.11c-0.59-19.91-0.19-39.84-0.24-59.77c-0.03-11.26-1.44-12.76-12.81-14.58
				c-1.53-0.25-2.89-1.47-4.33-2.23C431.12,468.63,431.46,468.03,431.79,467.44z"/>
			<path class="st0" d="M670.71,640.84c-20.46,0-39.54-0.26-58.61,0.14c-6.49,0.14-9.61,4.35-11.2,12.02
				c-0.43,2.1-1.04,4.17-1.56,6.26c-0.65-0.07-1.3-0.15-1.95-0.22c0-8.15,0-16.3,0-24.96c31.63,0,62.98,0,96.3,0
				c-1.92,3.45-3.1,6.6-5.16,9.11c-24.61,30.06-49.35,60.03-74.05,90.02c-1.26,1.53-2.39,3.15-4.32,5.71c7.81,0,14.51,0,21.2,0
				c14.04,0,28.09,0.03,42.13-0.01c10.03-0.03,13.55-2.41,16.77-11.6c1.59-4.53,2.77-9.2,4.19-13.78c0.07-0.23,0.73-0.31,1.85-0.74
				c0.43,1.16,1.25,2.29,1.2,3.38c-0.4,8.44-1.06,16.87-1.45,25.31c-0.15,3.35-1.67,4.4-5.15,4.39
				c-32.55-0.09-65.11-0.04-97.66-0.11c-1.52,0-3.04-0.83-4.56-1.27c0.74-1.97,1.01-4.29,2.29-5.87
				c22.57-27.74,45.28-55.38,67.93-83.05C662.67,651,666.32,646.33,670.71,640.84z"/>
			<path class="st0" d="M791.89,671.73c0,11.01,0,22.02,0,33.03c-0.61,0.26-1.22,0.52-1.83,0.79c-0.92-1.68-2.2-3.26-2.69-5.05
				c-2.15-7.83-3.69-9.08-12.34-9.1c-9.76-0.02-19.52,0-29.77,0c0,14.03-0.18,27.63,0.11,41.23c0.09,4.29,3.57,6.23,7.92,6.26
				c10.85,0.07,21.71,0.24,32.55-0.08c7.91-0.23,12.84-4.6,15.4-11.58c1.1-2.99,2.44-5.91,3.67-8.86c0.92,0.23,1.85,0.47,2.77,0.7
				c-0.87,8.71-1.74,17.42-2.63,26.27c-32.88,0-65.15,0.01-97.42-0.08c-0.31,0-0.63-1.26-1.22-2.54c3.77-0.35,7.07-0.56,10.33-0.96
				c9.61-1.18,12.11-3.56,12.28-12.82c0.24-12.88,0.08-25.77,0.08-38.65c0-12.48,0.04-24.96-0.01-37.44
				c-0.06-12.35-1.75-14.06-14.65-15.54c-1.4-0.16-2.75-0.79-4.12-1.2c0.05-0.61,0.1-1.22,0.14-1.83c1.66-0.23,3.32-0.66,4.98-0.66
				c26.17-0.04,52.35,0.04,78.52-0.1c4.01-0.02,5.76,0.99,5.77,5.02c0.02,5.62,0.7,11.23,0.94,16.86c0.05,1.19-0.61,2.41-0.94,3.61
				c-0.56,0.07-1.13,0.13-1.69,0.2c-0.74-2.04-1.63-4.04-2.19-6.12c-2.88-10.7-5.59-12.73-17.28-12.74c-11.02-0.01-22.04,0-33.38,0
				c0,14.86,0,29.03,0,43.71c11.79,0,23.22,0.22,34.64-0.11c4.77-0.14,6.46-3.9,7.52-7.87c0.49-1.85,1.58-3.56,2.4-5.34
				C790.48,671.07,791.18,671.4,791.89,671.73z"/>
			<path class="st0" d="M272.99,633.63c21.56-0.45,43.19-3.74,64.68,0.34c24.8,4.71,35.76,26.59,23.76,46.78
				c-6.23,10.49-16.8,15.35-28.78,16.76c-8.54,1-17.32,0.19-26.62,0.19c0,12.12-0.32,24.11,0.17,36.08
				c0.18,4.22,3.53,7.23,8.45,7.77c3.88,0.42,7.77,0.78,12.06,1.21c-3.52,4.09-47.68,4.29-52.28,0.12c2.35-0.32,4.06-0.57,5.78-0.79
				c7.91-0.99,9.73-2.81,9.82-10.55c0.12-9.86,0.03-19.72,0.03-29.58c0-17.5,0.01-35.01,0-52.51c-0.01-10.5-1.35-11.74-12.31-12.17
				c-1.83-0.07-3.62-0.87-5.43-1.33C272.54,635.19,272.77,634.41,272.99,633.63z M305.81,635.58c0,19.3-0.11,36.99,0.21,54.67
				c0.02,1.37,2.88,3.62,4.69,3.89c24.29,3.66,42.26-15.73,36.64-39.42c-2.19-9.23-7.92-15.79-17.95-17.47
				C321.98,636,314.31,636.13,305.81,635.58z"/>
			<path class="st0" d="M807.66,465.91c0,7.93,0.02,16.76-0.02,25.59c-0.01,1.37-0.27,2.74-1.8,4.63c-0.76-1.41-2.05-2.78-2.19-4.24
				c-1.84-20.24-4-17.12-21.52-17.36c-7.17-0.1-14.34-0.02-22.2-0.02c0,2.9,0,5.06,0,7.22c0,27.76-0.01,55.53,0.01,83.29
				c0,2.61,0.07,5.24,0.33,7.83c0.71,6.85,3.47,9.47,10.65,10.61c2.29,0.36,4.5,1.13,6.75,1.71c-0.09,0.66-0.18,1.33-0.26,1.99
				c-1.52,0.24-3.05,0.67-4.57,0.68c-15.52,0.05-31.05,0.09-46.57-0.06c-1.71-0.02-3.41-1.26-5.12-1.93
				c1.75-0.65,3.47-1.78,5.25-1.87c13.34-0.69,16.6-3.16,16.67-14.65c0.2-30.38,0.07-60.76,0.05-91.14c0-0.97-0.25-1.94-0.44-3.36
				c-12.47,0-24.73-0.37-36.93,0.29c-2.64,0.14-5.98,3.6-7.32,6.28c-1.66,3.31-1.41,7.45-2.33,11.15c-0.33,1.31-1.67,2.4-2.55,3.59
				c-0.57-0.28-1.14-0.56-1.71-0.84c0.75-10.13,1.5-20.26,2.3-30.95c15.05,5.25,30.09,2.23,44.92,2.71
				c15.08,0.49,30.2,0.24,45.29,0.05C791.78,467.03,799.2,466.37,807.66,465.91z"/>
			<path class="st0" d="M589.92,467.52c19.25,0,38.5,0,57.76,0c0.26,0.59,0.52,1.19,0.77,1.78c-1.55,0.73-3.13,2.14-4.64,2.07
				c-20.36-0.96-19.12,4-19.14,19.86c-0.03,26.37-0.03,52.74,0.01,79.11c0.01,9.21,0.95,10.04,10.57,10.07
				c8.08,0.03,16.19-0.37,24.25,0.1c10.17,0.59,17.09-3.29,21.71-11.72c1.12-2.04,3.29-3.57,4.97-5.33c0.67,0.48,1.33,0.95,2,1.43
				c-3.23,7.09-6.32,14.25-9.85,21.21c-0.54,1.07-3.15,1.7-4.8,1.7c-26.6,0.1-53.19,0.1-79.79-0.01c-1.56-0.01-3.12-1.17-4.68-1.8
				c1.5-0.7,2.95-1.9,4.49-2.01c12.19-0.84,14.4-2.85,14.43-14.29c0.06-27.78,0.07-55.56,0-83.33
				c-0.03-11.14-2.62-13.64-14.25-14.96c-1.6-0.18-3.07-1.43-4.61-2.19C589.38,468.66,589.65,468.09,589.92,467.52z"/>
			<path class="st0" d="M528.97,634.03c14.74,0,29.48,0,44.22,0c0.19,0.46,0.38,0.91,0.57,1.37c-1.33,0.73-2.57,1.84-3.99,2.12
				c-9.97,1.92-11.83,3.79-11.88,13.77c-0.11,21.32-0.04,42.65-0.04,63.97c0,4.63-0.11,9.26,0.05,13.88
				c0.3,8.88,2.3,10.96,11.67,12.77c1.34,0.26,2.62,0.81,4.15,1.29c-3.56,3.37-40.26,3.79-46.02,0.32c1.89-0.78,3.21-1.74,4.61-1.84
				c7.08-0.51,9.6-4.96,9.64-10.66c0.18-27.76,0.16-55.52,0.03-83.29c-0.03-5.49-3.15-8.94-9.15-9.91c-1.64-0.27-3.12-1.4-4.68-2.13
				C528.42,635.13,528.69,634.58,528.97,634.03z"/>
		</g>
	</g>
	<g>
		<rect x="239.82" y="795.35" class="st0" width="600.37" height="106.81"/>
		<text transform="matrix(1.057 0 0 1 427.5928 876.0273)" class="st1 st2 st3">acem</text>
	</g>
</g>
</svg>
