<svg width="929" height="1120" viewBox="0 0 929 1120" fill="none" xmlns="http://www.w3.org/2000/svg">
<rect width="929" height="1120" fill="white"/>
<path d="M477.641 102.314C477.657 92.7256 485.217 85.402 495.026 85.4624C504.669 85.5379 512.35 93.1182 512.335 102.556C512.32 111.888 504.443 119.574 494.905 119.558C485.051 119.558 477.611 112.144 477.641 102.314Z" fill="#E2077F"/>
<path d="M477.611 257.77C477.657 248.181 485.247 240.767 494.936 240.843C504.578 240.918 512.365 248.544 512.32 257.876C512.29 267.419 504.382 275.044 494.664 274.908C484.855 274.773 477.566 267.464 477.611 257.77Z" fill="#E2077F"/>
<path d="M446.359 102.51C446.389 112.175 438.994 119.558 429.261 119.574C419.708 119.589 411.771 111.963 411.68 102.661C411.574 93.2541 419.618 85.402 429.261 85.4775C439.145 85.5681 446.328 92.7105 446.359 102.51Z" fill="#E2077F"/>
<path d="M446.359 257.815C447.173 266.422 439.311 275.105 429.034 274.924C419.422 274.757 411.665 267.192 411.68 257.83C411.68 248.544 419.542 241.039 429.17 240.812C437.923 240.601 447.068 248.347 446.359 257.815Z" fill="#E2077F"/>
<path d="M399.94 212.439C399.849 222.043 392.243 229.533 382.6 229.502C372.882 229.472 365.216 221.711 365.321 212.047C365.427 202.67 373.048 195.391 382.736 195.406C392.621 195.421 400.03 202.76 399.94 212.439Z" fill="#E2077F"/>
<path d="M541.43 164.889C532.3 165.599 523.955 157.656 524.045 148.369C524.136 138.434 531.545 130.914 541.279 130.914C551.133 130.914 558.694 138.434 558.679 148.203C558.648 157.641 551.133 164.919 541.43 164.889Z" fill="#E2077F"/>
<path d="M382.57 164.859C372.746 164.844 365.306 157.565 365.321 147.962C365.337 138.464 373.048 130.868 382.646 130.914C392.485 130.944 399.97 138.419 399.955 148.188C399.924 157.852 392.621 164.874 382.57 164.859Z" fill="#E2077F"/>
<path d="M524.045 212.243C524.03 202.805 531.47 195.497 541.203 195.391C551.073 195.286 558.709 202.775 558.679 212.545C558.663 221.937 550.711 229.653 541.203 229.533C531.545 229.382 524.06 221.847 524.045 212.243Z" fill="#E2077F"/>
<path d="M575.339 102.752C582.311 102.812 587.607 108.067 587.577 114.877C587.547 121.763 582.009 127.078 574.961 126.988C568.095 126.897 562.783 121.491 562.889 114.666C562.994 107.795 568.337 102.677 575.339 102.752Z" fill="#E2077F"/>
<path d="M575.082 257.664C568.14 257.634 562.828 252.319 562.889 245.478C562.949 238.593 568.261 233.413 575.218 233.444C582.326 233.474 587.653 238.774 587.577 245.75C587.487 252.545 582.084 257.694 575.082 257.664Z" fill="#E2077F"/>
<path d="M348.646 257.679C341.886 257.634 336.438 252.153 336.453 245.433C336.468 238.653 342.142 233.293 349.189 233.413C355.95 233.519 361.171 238.804 361.156 245.539C361.156 252.53 355.814 257.725 348.646 257.679Z" fill="#E2077F"/>
<path d="M349.024 102.752C355.86 102.767 361.141 107.946 361.141 114.651C361.141 121.793 355.935 127.003 348.812 126.973C341.901 126.942 336.498 121.657 336.453 114.877C336.423 108.037 341.901 102.737 349.024 102.752Z" fill="#E2077F"/>
<path d="M540.947 69.3053C540.947 76.1909 535.575 81.5968 528.784 81.5515C521.872 81.5062 516.44 76.1457 516.455 69.3657C516.47 62.3592 521.571 57.3158 528.724 57.2554C535.861 57.2101 540.947 62.2233 540.947 69.3053Z" fill="#E2077F"/>
<path d="M601.415 148.113C601.415 155.21 596.375 160.132 589.132 160.132C582.205 160.132 576.833 154.787 576.908 147.932C576.984 141.001 582.265 135.851 589.297 135.867C596.284 135.897 601.415 141.091 601.415 148.113Z" fill="#E2077F"/>
<path d="M407.53 69.6526C407.379 76.4476 402.052 81.627 395.292 81.5817C388.244 81.5364 382.902 76.0702 383.023 69.0335C383.144 62.1177 388.455 57.1648 395.639 57.3007C402.792 57.4064 407.696 62.4951 407.53 69.6526Z" fill="#E2077F"/>
<path d="M322.494 148.083C322.509 140.986 327.806 135.821 335.004 135.882C341.795 135.942 347.062 141.212 347.062 147.962C347.062 154.923 341.795 160.148 334.808 160.133C327.67 160.133 322.464 155.044 322.494 148.083Z" fill="#E2077F"/>
<path d="M540.947 291.217C540.902 298.208 535.695 303.221 528.573 303.131C521.54 303.04 516.319 297.77 516.425 290.884C516.545 284.12 522.129 278.729 528.92 278.85C535.876 278.97 541.007 284.24 540.947 291.217Z" fill="#E2077F"/>
<path d="M494.588 316.902C487.571 316.751 482.35 311.405 482.561 304.55C482.757 297.649 488.22 292.545 495.192 292.727C502.149 292.908 507.627 298.495 507.34 305.109C507.023 312.04 501.621 317.053 494.588 316.902Z" fill="#E2077F"/>
<path d="M322.494 212.334C322.509 205.448 327.912 200.072 334.778 200.148C341.705 200.223 347.107 205.584 347.062 212.379C347.016 219.295 341.735 224.489 334.733 224.504C327.761 224.504 322.479 219.234 322.494 212.334Z" fill="#E2077F"/>
<path d="M441.454 304.822C441.273 312.07 436.082 317.053 428.899 316.872C421.761 316.691 416.751 311.557 416.886 304.535C417.022 297.649 422.485 292.53 429.502 292.727C436.459 292.923 441.62 298.148 441.454 304.822Z" fill="#E2077F"/>
<path d="M482.576 55.6397C482.546 48.5275 487.752 43.4992 495.117 43.5294C501.907 43.5596 507.28 48.8295 507.355 55.5189C507.431 62.2082 501.877 67.6594 494.951 67.6896C487.949 67.7198 482.606 62.5253 482.576 55.6397Z" fill="#E2077F"/>
<path d="M407.545 290.915C407.485 298.283 402.535 303.176 395.156 303.131C388.124 303.085 382.993 297.906 383.038 290.899C383.083 284.21 388.501 278.834 395.171 278.85C402.279 278.88 407.591 284.059 407.545 290.915Z" fill="#E2077F"/>
<path d="M601.4 212.56C601.385 219.325 596.149 224.474 589.298 224.489C582.311 224.504 576.938 219.265 576.908 212.409C576.878 205.614 582.311 200.163 589.147 200.118C596.164 200.087 601.415 205.418 601.4 212.56Z" fill="#E2077F"/>
<path d="M441.439 55.6246C441.409 62.5253 436.127 67.7349 429.14 67.7047C422.093 67.6896 416.871 62.4951 416.886 55.5491C416.901 48.6483 422.063 43.4992 428.914 43.5747C436.489 43.6351 441.469 48.4369 441.439 55.6246Z" fill="#E2077F"/>
<path d="M429.246 31.9929C423.315 31.9929 418.773 27.6894 418.788 22.057C418.803 16.4096 423.33 12.0305 429.2 12.0003C435.01 11.9701 439.492 16.4096 439.447 22.1476C439.387 27.8102 435.056 31.9929 429.246 31.9929Z" fill="#E2077F"/>
<path d="M429.231 328.454C435.206 328.484 439.537 332.757 439.432 338.54C439.326 344.203 434.995 348.401 429.216 348.431C423.421 348.461 418.833 344.037 418.788 338.404C418.758 332.772 423.315 328.438 429.231 328.454Z" fill="#E2077F"/>
<path d="M505.227 22.1627C505.197 27.8253 500.685 32.0533 494.709 31.9929C488.96 31.9476 484.613 27.6743 484.598 22.057C484.583 16.4247 489.201 11.955 494.966 12.0003C500.821 12.0456 505.258 16.4549 505.227 22.1627Z" fill="#E2077F"/>
<path d="M494.845 328.438C500.745 328.408 505.227 332.712 505.227 338.404C505.227 344.052 500.67 348.431 494.83 348.431C489.156 348.431 484.704 344.112 484.598 338.54C484.478 332.802 488.884 328.469 494.845 328.438Z" fill="#E2077F"/>
<path d="M623.553 222.33C617.638 222.33 613.156 218.057 613.141 212.379C613.111 206.762 617.728 202.352 623.568 202.398C629.348 202.443 634.011 207.003 633.906 212.515C633.8 217.951 629.197 222.315 623.553 222.33Z" fill="#E2077F"/>
<path d="M300.432 202.398C306.166 202.337 310.723 206.611 310.829 212.122C310.935 217.755 306.498 222.224 300.673 222.345C294.848 222.466 290.185 218.117 290.079 212.485C289.989 206.988 294.622 202.458 300.432 202.398Z" fill="#E2077F"/>
<path d="M300.447 157.988C294.818 158.003 290.155 153.579 290.094 148.173C290.019 142.647 294.697 138.041 300.386 138.011C306.196 137.981 310.874 142.45 310.844 147.977C310.799 153.685 306.347 157.973 300.447 157.988Z" fill="#E2077F"/>
<path d="M623.101 158.003C617.291 157.792 612.869 153.171 613.141 147.584C613.428 141.892 618.121 137.754 623.991 138.026C629.544 138.283 634.072 142.979 633.891 148.294C633.709 153.821 628.835 158.2 623.101 158.003Z" fill="#E2077F"/>
<path d="M314.436 268.944C314.587 263.221 319.189 259.038 325.15 259.219C330.643 259.386 335.019 263.885 334.929 269.291C334.838 275.15 330.341 279.423 324.486 279.257C318.45 279.091 314.285 274.818 314.436 268.944Z" fill="#E2077F"/>
<path d="M542.818 45.432C542.848 39.8299 547.361 35.4357 553.004 35.5112C558.799 35.5867 563.236 40.1017 563.145 45.8397C563.055 51.5475 558.709 55.7001 552.884 55.6246C546.832 55.5491 542.773 51.4418 542.818 45.432Z" fill="#E2077F"/>
<path d="M324.788 81.174C330.507 81.0985 334.868 85.3718 334.884 91.0948C334.899 96.7724 330.628 101.031 324.818 101.121C319.023 101.212 314.526 97.014 314.451 91.4118C314.36 85.3265 318.45 81.2646 324.788 81.174Z" fill="#E2077F"/>
<path d="M542.818 314.41C542.879 308.703 547.149 304.701 553.11 304.777C558.995 304.852 563.145 308.989 563.115 314.758C563.085 320.677 558.784 324.784 552.763 324.678C546.682 324.558 542.758 320.511 542.818 314.41Z" fill="#E2077F"/>
<path d="M371.011 55.6095C365.261 55.6246 360.9 51.3513 360.87 45.6736C360.855 39.9658 365.472 35.4357 371.207 35.5112C376.821 35.5867 381.272 40.0262 381.303 45.583C381.333 51.4419 377.077 55.5944 371.011 55.6095Z" fill="#E2077F"/>
<path d="M381.303 314.788C381.257 320.601 377.137 324.648 371.222 324.678C365.155 324.709 360.809 320.496 360.9 314.682C360.99 308.778 365.276 304.716 371.328 304.792C377.228 304.867 381.348 309.005 381.303 314.788Z" fill="#E2077F"/>
<path d="M609.534 91.0344C609.549 96.9234 605.309 101.121 599.348 101.136C593.417 101.151 589.267 96.9234 589.313 90.9136C589.358 85.1755 593.553 81.1438 599.514 81.1136C605.354 81.0834 609.519 85.2057 609.534 91.0344Z" fill="#E2077F"/>
<path d="M609.549 269.367C609.489 275.256 605.158 279.393 599.167 279.288C593.432 279.197 589.207 274.848 589.313 269.14C589.403 263.387 593.674 259.174 599.408 259.189C605.354 259.204 609.61 263.463 609.549 269.367Z" fill="#E2077F"/>
<path d="M62.4512 450.644C85.7512 450.644 109.036 450.644 132.336 450.644C132.819 451.384 133.317 452.139 133.8 452.878C131.687 454.177 129.726 456.261 127.447 456.669C112.718 459.236 108.749 463.131 108.614 476.993C108.433 495.808 108.568 514.638 108.568 534.223C143.443 534.223 177.835 534.223 212.83 534.223C212.83 512.599 213.207 491.369 212.649 470.153C212.423 461.531 205.903 457.559 197.09 457.016C194.525 456.865 191.869 457.152 189.439 456.548C187.644 456.095 186.15 454.539 184.52 453.482C186.331 452.38 188.111 450.372 189.953 450.342C203.745 450.07 217.553 450.191 231.361 450.191C241.231 450.191 251.1 450.191 260.969 450.191C261.407 451.187 261.845 452.169 262.282 453.165C260.019 454.479 257.921 456.472 255.461 457.016C243.374 459.673 239.329 463.146 239.254 474.849C238.967 518.911 238.922 562.973 239.314 607.036C239.435 620.686 243.66 623.902 259.34 626.469C261.482 626.817 263.414 628.297 265.436 629.263C263.248 630.32 261.09 632.283 258.887 632.298C235.451 632.525 212.015 632.509 188.594 632.313C186.21 632.298 183.826 630.637 181.456 629.731C183.931 628.629 186.316 627.134 188.911 626.545C192.307 625.79 195.898 625.835 199.384 625.397C207.563 624.355 212.558 619.584 212.709 612.124C213.162 590.29 212.875 568.455 212.875 546.031C178.091 546.031 143.926 546.031 108.9 546.031C108.9 567.941 108.372 589.716 109.142 611.445C109.474 621.003 116.914 625.337 126.828 626.183C129.016 626.379 130.993 628.659 133.076 629.988C130.963 630.803 128.85 632.298 126.722 632.328C105.852 632.509 84.9967 632.509 64.1263 632.298C62.2249 632.283 60.3385 630.441 58.4522 629.459C60.3385 628.372 62.1041 626.696 64.1414 626.318C79.881 623.374 83.216 619.78 83.2462 604.272C83.3066 562.037 83.3066 519.787 83.2462 477.552C83.2311 463.856 80.5751 460.866 66.8426 456.986C64.6696 456.367 63.0247 454.071 61.1383 452.546C61.576 451.897 62.0136 451.263 62.4512 450.644Z" fill="#070909"/>
<path d="M214.218 702.091C220.39 701.653 226.563 700.792 232.735 700.837C259.611 700.973 286.593 700.173 313.349 702.106C330.779 703.359 346.005 711.861 354.411 727.504C366.076 749.173 357.067 774.949 334.235 787.15C331.186 788.781 327.927 790.094 326.101 790.94C338.188 803.201 350.352 815.931 362.982 828.222C372.142 837.131 381.031 846.674 391.685 853.696C401.162 859.932 412.887 863.103 423.647 867.543C425.956 868.494 428.416 869.098 431.6 870.125C429.895 872.118 429.381 873.296 428.763 873.341C401.962 875.606 376.76 872.631 356.69 853.228C344.572 841.51 331.609 830.457 320.472 817.954C305.623 801.283 287.619 796.24 265.436 801.102C265.436 817.894 265.074 835.108 265.617 852.292C265.844 859.479 270.944 863.692 278.731 864.568C283.59 865.112 288.419 865.806 293.973 866.531C288.314 872.209 221.175 872.707 212.483 866.878C218.263 865.957 222.609 865.051 227.015 864.598C234.53 863.813 238.499 859.57 239.782 852.971C240.582 848.819 240.974 844.53 240.989 840.302C241.08 803.82 241.035 767.353 241.05 730.872C241.065 714.246 237.518 706.198 219.319 706.998C217.493 707.074 215.577 705.473 213.705 704.658C213.871 703.797 214.037 702.936 214.218 702.091ZM264.561 703.963C264.561 727.625 264.561 748.81 264.561 769.996C264.561 797.856 264.561 797.856 294.44 793.356C315.854 790.14 328.485 779.373 331.624 760.709C332.68 754.488 332.484 747.98 332.062 741.653C330.884 724.545 320.019 711.468 302.393 707.874C290.668 705.488 278.414 705.307 264.561 703.963Z" fill="#070909"/>
<path d="M298.696 450.568C323.641 450.568 348.586 450.568 373.531 450.568C374.014 451.368 374.481 452.169 374.964 452.969C372.837 454.207 370.83 456.216 368.551 456.563C352.962 458.903 348.888 462.316 348.767 476.993C348.51 507.979 348.133 538.994 349.371 569.95C350.276 592.615 362.258 610.222 384.668 619.221C405.387 627.541 425.745 625.065 443.446 611.264C458.537 599.516 462.807 582.966 463.094 565.495C463.532 538.451 463.426 511.406 463.139 484.362C462.928 465.547 458.175 456.759 439.658 456.759C437.757 456.759 435.84 454.388 433.939 453.12C434.226 452.139 434.527 451.157 434.814 450.175C441.65 450.175 448.501 450.175 455.337 450.175C469.779 450.175 484.236 450.07 498.678 450.311C500.594 450.342 502.466 452.199 504.367 453.211C502.873 454.419 501.56 456.291 499.84 456.714C481.324 461.289 477.611 465.487 477.506 483.834C477.355 511.18 477.838 538.541 477.34 565.888C476.887 591.573 467.712 613.921 443.959 628.13C417.988 643.684 390.251 643.517 363.133 630.984C336.272 618.572 324.214 596.314 323.4 568.908C322.509 538.843 323.113 508.749 323.037 478.654C322.992 461.652 320.864 459.387 303.706 456.638C301.397 456.261 299.345 454.419 297.172 453.271C297.685 452.365 298.198 451.459 298.696 450.568Z" fill="#070909"/>
<path d="M659.243 712.404C628.367 712.404 599.574 712.012 570.796 712.616C561.002 712.827 556.294 719.184 553.895 730.766C553.246 733.937 552.325 737.063 551.541 740.219C550.56 740.113 549.579 739.992 548.598 739.886C548.598 727.58 548.598 715.273 548.598 702.196C596.33 702.196 643.639 702.196 693.921 702.196C691.024 707.406 689.243 712.163 686.135 715.953C648.996 761.344 611.662 806.599 574.388 851.884C572.486 854.194 570.781 856.64 567.869 860.506C579.655 860.506 589.765 860.506 599.861 860.506C621.048 860.506 642.251 860.551 663.438 860.491C678.574 860.446 683.886 856.852 688.745 842.975C691.145 836.135 692.925 829.083 695.068 822.167C695.174 821.82 696.17 821.699 697.86 821.049C698.509 822.801 699.746 824.507 699.671 826.153C699.067 838.898 698.071 851.627 697.483 864.372C697.256 869.43 694.963 871.016 689.711 871.001C640.591 870.865 591.456 870.94 542.335 870.835C540.042 870.835 537.748 869.581 535.454 868.917C536.571 865.942 536.978 862.439 538.91 860.053C572.969 818.165 607.24 776.429 641.421 734.647C647.11 727.746 652.618 720.694 659.243 712.404Z" fill="#070909"/>
<path d="M842.112 759.048C842.112 775.674 842.112 792.299 842.112 808.924C841.191 809.317 840.271 809.709 839.35 810.117C837.962 807.58 836.03 805.194 835.291 802.491C832.046 790.668 829.723 788.781 816.669 788.75C801.941 788.72 787.212 788.75 771.744 788.75C771.744 809.936 771.472 830.472 771.91 851.008C772.046 857.486 777.297 860.415 783.862 860.461C800.235 860.566 816.624 860.823 832.982 860.34C844.919 859.993 852.359 853.394 856.222 842.854C857.882 838.339 859.904 833.93 861.76 829.475C863.148 829.823 864.552 830.185 865.94 830.532C864.627 843.685 863.314 856.837 861.971 870.2C812.353 870.2 763.655 870.215 714.958 870.08C714.49 870.08 714.007 868.177 713.117 866.244C718.806 865.716 723.786 865.398 728.705 864.794C743.208 863.013 746.98 859.419 747.237 845.436C747.599 825.987 747.357 806.523 747.357 787.074C747.357 768.229 747.418 749.384 747.342 730.539C747.252 711.891 744.702 709.309 725.235 707.074C723.122 706.832 721.085 705.881 719.017 705.262C719.093 704.341 719.168 703.42 719.228 702.498C721.734 702.151 724.239 701.502 726.744 701.502C766.236 701.441 805.743 701.562 845.236 701.351C851.287 701.321 853.928 702.846 853.943 708.931C853.973 717.417 854.999 725.889 855.362 734.39C855.437 736.187 854.441 738.029 853.943 739.841C853.098 739.947 852.238 740.037 851.393 740.143C850.276 737.063 848.933 734.043 848.088 730.902C843.742 714.745 839.652 711.679 822.011 711.664C805.381 711.649 788.751 711.664 771.638 711.664C771.638 734.103 771.638 755.5 771.638 777.667C789.43 777.667 806.679 777.999 823.913 777.501C831.111 777.289 833.661 771.612 835.261 765.617C836 762.823 837.645 760.241 838.883 757.553C839.984 758.052 841.041 758.55 842.112 759.048Z" fill="#070909"/>
<path d="M59.0558 701.517C91.5913 700.837 124.233 695.869 156.662 702.03C194.087 709.142 210.627 742.182 192.518 772.669C183.116 788.509 167.166 795.847 149.087 797.976C136.199 799.486 122.95 798.263 108.915 798.263C108.915 816.565 108.433 834.67 109.172 852.745C109.444 859.117 114.499 863.662 121.924 864.477C127.779 865.112 133.649 865.655 140.123 866.304C134.811 872.48 68.1706 872.782 61.2289 866.486C64.7752 866.002 67.3557 865.625 69.9513 865.293C81.888 863.798 84.6345 861.05 84.7704 849.362C84.9515 834.473 84.8156 819.585 84.8156 804.696C84.8156 778.271 84.8307 751.831 84.8156 725.405C84.8005 709.55 82.7784 707.678 66.239 707.029C63.4774 706.923 60.7762 705.715 58.0448 705.02C58.3768 703.873 58.7238 702.695 59.0558 701.517ZM108.583 704.462C108.583 733.605 108.417 760.317 108.9 787.014C108.931 789.082 113.246 792.48 115.978 792.888C152.633 798.414 179.751 769.135 171.27 733.363C167.965 719.426 159.318 709.52 144.182 706.983C132.985 705.096 121.411 705.292 108.583 704.462Z" fill="#070909"/>
<path d="M865.91 448.258C865.91 460.232 865.94 473.566 865.88 486.899C865.865 488.968 865.472 491.036 863.164 493.89C862.017 491.761 860.07 489.693 859.859 487.488C857.082 456.925 853.822 461.636 827.383 461.274C816.563 461.123 805.743 461.244 793.882 461.244C793.882 465.623 793.882 468.885 793.882 472.146C793.882 514.064 793.867 555.997 793.897 597.915C793.897 601.856 794.003 605.827 794.395 609.738C795.467 620.082 799.632 624.038 810.467 625.76C813.923 626.303 817.258 627.466 820.653 628.342C820.517 629.338 820.381 630.35 820.261 631.347C817.967 631.709 815.658 632.358 813.364 632.374C789.943 632.449 766.508 632.509 743.087 632.283C740.506 632.253 737.941 630.38 735.36 629.369C738.001 628.387 740.597 626.681 743.283 626.545C763.414 625.503 768.334 621.773 768.439 604.423C768.741 558.549 768.545 512.675 768.515 466.801C768.515 465.336 768.137 463.871 767.851 461.727C749.033 461.727 730.531 461.168 712.121 462.165C708.137 462.376 703.096 467.601 701.074 471.648C698.569 476.646 698.947 482.897 697.558 488.484C697.06 490.463 695.038 492.109 693.71 493.905C692.85 493.483 691.99 493.06 691.13 492.637C692.261 477.341 693.393 462.044 694.6 445.902C717.312 453.83 740.008 449.269 762.388 449.994C785.145 450.734 807.962 450.357 830.734 450.07C841.946 449.949 853.143 448.952 865.91 448.258Z" fill="#070909"/>
<path d="M537.325 450.689C566.375 450.689 595.424 450.689 624.489 450.689C624.881 451.58 625.274 452.486 625.651 453.377C623.312 454.479 620.928 456.608 618.649 456.502C587.924 455.053 589.796 462.543 589.765 486.491C589.72 526.31 589.72 566.129 589.78 605.948C589.796 619.856 591.214 621.109 605.731 621.154C617.925 621.199 630.163 620.595 642.326 621.305C657.673 622.196 668.116 616.337 675.088 603.608C676.778 600.527 680.053 598.217 682.588 595.559C683.599 596.284 684.595 596.994 685.606 597.719C680.732 608.425 676.069 619.236 670.742 629.746C669.927 631.362 665.989 632.313 663.499 632.313C623.357 632.464 583.231 632.464 543.09 632.298C540.736 632.283 538.382 630.531 536.027 629.58C538.291 628.523 540.479 626.711 542.803 626.545C561.199 625.276 564.534 622.241 564.579 604.967C564.67 563.019 564.685 521.071 564.579 479.138C564.534 462.316 560.625 458.541 543.075 456.548C540.66 456.276 538.442 454.388 536.118 453.241C536.51 452.41 536.918 451.55 537.325 450.689Z" fill="#070909"/>
<path d="M445.347 702.121C467.591 702.121 489.835 702.121 512.078 702.121C512.365 702.816 512.652 703.495 512.939 704.19C510.932 705.292 509.06 706.968 506.917 707.391C491.872 710.29 489.065 713.114 488.99 728.184C488.824 760.377 488.929 792.586 488.929 824.779C488.929 831.771 488.763 838.762 489.005 845.738C489.458 859.147 492.476 862.288 506.616 865.021C508.638 865.414 510.569 866.244 512.878 866.969C507.506 872.058 452.123 872.692 443.431 867.452C446.283 866.274 448.275 864.825 450.388 864.674C461.072 863.904 464.875 857.184 464.935 848.577C465.207 806.659 465.177 764.741 464.98 722.808C464.935 714.518 460.227 709.309 451.172 707.844C448.698 707.436 446.464 705.73 444.11 704.628C444.517 703.782 444.925 702.952 445.347 702.121Z" fill="#070909"/>
<path d="M915 945.716H9V1107H915V945.716Z" fill="#E2077F"/>
<path d="M329.9 983.759C337.798 983.759 343.952 985.555 348.362 989.147C352.875 992.637 355.131 997.563 355.131 1003.93C355.131 1005.77 354.823 1011.62 354.208 1021.47C354.105 1024.35 353.952 1027.32 353.746 1030.4C353.541 1033.38 353.439 1035.95 353.439 1038.1C353.439 1039.85 353.695 1041.08 354.208 1041.8C354.721 1042.41 355.644 1042.72 356.977 1042.72C358.003 1042.72 359.336 1042.51 360.977 1042.1L362.516 1043.33L360.669 1054.11C357.387 1056.27 353.644 1057.55 349.439 1057.96C346.362 1057.65 343.798 1056.57 341.746 1054.73C339.695 1052.78 338.311 1050.11 337.593 1046.72H336.516C331.388 1052.16 326.106 1055.96 320.67 1058.11C313.285 1058.01 307.49 1056.06 303.285 1052.26C299.08 1048.47 296.978 1043.28 296.978 1036.72C296.978 1031.58 298.26 1027.58 300.824 1024.71C303.49 1021.73 307.49 1019.73 312.824 1018.7L336.362 1014.24V1007.93C336.362 1001.26 333.08 997.922 326.516 997.922C323.336 997.922 319.952 998.64 316.362 1000.08C312.875 1001.51 308.926 1003.77 304.516 1006.85L302.978 1005.93L300.67 992.38C305.08 989.609 309.798 987.505 314.824 986.068C319.849 984.529 324.875 983.759 329.9 983.759ZM319.9 1028.09C318.259 1028.5 317.029 1029.22 316.208 1030.25C315.49 1031.17 315.131 1032.61 315.131 1034.56C315.131 1037.23 315.849 1039.33 317.285 1040.87C318.721 1042.31 320.721 1043.03 323.285 1043.03C327.285 1043.03 331.49 1040.67 335.9 1035.95L336.208 1024.55L319.9 1028.09Z" fill="white"/>
<path d="M405.199 983.759C408.584 983.759 411.917 984.119 415.199 984.837C418.584 985.453 421.558 986.376 424.122 987.608L420.737 1003.93L419.045 1004.7C413.814 1001.82 409.148 1000.39 405.045 1000.39C400.327 1000.39 396.686 1002.08 394.122 1005.47C391.558 1008.85 390.276 1013.68 390.276 1019.94C390.276 1027.12 391.661 1032.61 394.43 1036.41C397.199 1040.2 401.148 1042.1 406.276 1042.1C410.891 1042.1 416.02 1040.82 421.661 1038.25L423.199 1039.49L421.199 1055.34C415.045 1057.29 408.738 1058.27 402.276 1058.27C392.43 1058.27 384.738 1055.09 379.199 1048.72C373.661 1042.26 370.892 1033.28 370.892 1021.78C370.892 1009.88 373.917 1000.59 379.969 993.92C386.02 987.146 394.43 983.759 405.199 983.759Z" fill="white"/>
<path d="M490.393 1023.48L448.855 1023.78C449.778 1036.61 456.291 1043.03 468.393 1043.03C474.752 1043.03 481.829 1041.23 489.624 1037.64L491.316 1038.72L488.239 1053.96C480.445 1056.83 473.111 1058.27 466.24 1058.27C454.958 1058.27 446.086 1054.98 439.624 1048.41C433.265 1041.85 430.086 1032.76 430.086 1021.17C430.086 1009.67 433.214 1000.59 439.471 993.92C445.727 987.146 454.188 983.759 464.855 983.759C473.983 983.759 481.009 986.274 485.932 991.303C490.957 996.229 493.47 1003.16 493.47 1012.08C493.47 1014.45 493.214 1017.42 492.701 1021.01L490.393 1023.48ZM475.624 1009.78C475.624 1005.67 474.701 1002.59 472.855 1000.54C471.009 998.384 468.291 997.306 464.701 997.306C460.701 997.306 457.368 998.64 454.701 1001.31C452.035 1003.87 450.24 1007.62 449.317 1012.55L475.316 1011.93L475.624 1009.78Z" fill="white"/>
<path d="M593.266 1056.73L594.497 1012.08C594.497 1004.49 591.266 1000.69 584.805 1000.69C580.19 1000.69 575.369 1002.75 570.343 1006.85L569.882 1025.32L570.805 1056.73H550.344L551.574 1012.08C551.677 1008.39 550.856 1005.57 549.113 1003.62C547.472 1001.67 545.062 1000.69 541.882 1000.69C537.369 1000.69 532.395 1002.85 526.959 1007.16V1025.17L527.882 1056.73H507.575L508.652 1027.17L507.882 986.53L527.113 984.837V995.305H528.19C533.831 990.174 540.036 986.479 546.805 984.221C558.292 984.221 565.626 988.07 568.805 995.767H569.728C575.574 990.328 582.241 986.479 589.728 984.221C597.523 984.221 603.42 986.017 607.42 989.609C611.523 993.098 613.471 998.179 613.266 1004.85L612.805 1025.32L613.728 1056.73H593.266Z" fill="white"/>
</svg>
