<svg width="338" height="338" viewBox="0 0 338 338" fill="none" xmlns="http://www.w3.org/2000/svg">
<g clip-path="url(#clip0_723_45)">
<path d="M183.846 91.3053C183.866 81.6861 191.033 74.3455 200.336 74.422C209.487 74.4933 216.781 82.099 216.766 91.55C216.751 100.904 209.278 108.607 200.224 108.602C190.875 108.591 183.83 101.154 183.846 91.3053Z" fill="#E4077F"/>
<path d="M183.83 247.115C183.876 237.501 191.074 230.078 200.27 230.155C209.415 230.231 216.807 237.878 216.771 247.227C216.736 256.8 209.242 264.436 200.015 264.304C190.692 264.171 183.779 256.836 183.83 247.115Z" fill="#E4077F"/>
<path d="M154.167 91.4991C154.188 101.185 147.173 108.581 137.936 108.602C128.878 108.622 121.344 100.97 121.247 91.6571C121.15 82.2367 128.781 74.3507 137.921 74.4323C147.326 74.5189 154.142 81.6811 154.167 91.4991Z" fill="#E4077F"/>
<path d="M154.167 247.17C154.947 255.801 147.479 264.492 137.732 264.319C128.608 264.156 121.257 256.575 121.262 247.175C121.267 237.862 128.72 230.353 137.855 230.119C146.164 229.915 154.845 237.673 154.167 247.17Z" fill="#E4077F"/>
<path d="M110.124 201.684C110.042 211.309 102.819 218.817 93.6635 218.787C84.447 218.761 77.1625 210.982 77.2695 201.287C77.3715 191.887 84.5999 184.597 93.8012 184.612C103.176 184.628 110.205 191.983 110.124 201.684Z" fill="#E4077F"/>
<path d="M244.375 154.016C235.719 154.724 227.797 146.762 227.874 137.464C227.955 127.498 234.985 119.969 244.222 119.969C253.576 119.969 260.754 127.498 260.738 137.296C260.718 146.752 253.576 154.051 244.375 154.016Z" fill="#E4077F"/>
<path d="M93.6379 154.001C84.3144 153.99 77.2593 146.686 77.2746 137.061C77.2899 127.544 84.61 119.933 93.7144 119.969C103.048 120.005 110.149 127.493 110.134 137.28C110.113 146.976 103.176 154.011 93.6379 154.001Z" fill="#E4077F"/>
<path d="M227.879 201.481C227.869 192.014 234.924 184.694 244.161 184.587C253.525 184.48 260.769 191.989 260.748 201.776C260.728 211.186 253.194 218.92 244.161 218.797C234.995 218.675 227.894 211.12 227.879 201.481Z" fill="#E4077F"/>
<path d="M276.551 91.7339C283.157 91.8002 288.194 97.0661 288.168 103.887C288.143 110.789 282.887 116.116 276.194 116.024C269.679 115.937 264.643 110.508 264.74 103.678C264.837 96.801 269.909 91.6728 276.551 91.7339Z" fill="#E4077F"/>
<path d="M276.301 247.012C269.715 246.976 264.674 241.66 264.73 234.803C264.786 227.901 269.822 222.707 276.429 222.732C283.178 222.758 288.225 228.074 288.148 235.073C288.082 241.884 282.949 247.048 276.301 247.012Z" fill="#E4077F"/>
<path d="M61.4566 247.033C55.0438 246.992 49.8748 241.502 49.8901 234.753C49.9054 227.952 55.2834 222.59 61.9766 222.702C68.3945 222.809 73.3392 228.105 73.3341 234.855C73.3188 241.874 68.2467 247.079 61.4566 247.033Z" fill="#E4077F"/>
<path d="M61.8084 91.7432C68.2977 91.7534 73.3087 96.953 73.3138 103.677C73.3189 110.834 68.3741 116.054 61.6147 116.023C55.0591 115.998 49.9309 110.691 49.8953 103.896C49.8545 97.0345 55.0541 91.733 61.8084 91.7432Z" fill="#E4077F"/>
<path d="M243.921 58.2115C243.921 65.1137 238.829 70.5325 232.38 70.4917C225.825 70.4509 220.676 65.078 220.681 58.2778C220.686 51.2481 225.534 46.1964 232.319 46.1454C239.094 46.0944 243.921 51.1156 243.921 58.2115Z" fill="#E4077F"/>
<path d="M301.295 137.209C301.29 144.316 296.513 149.255 289.647 149.255C283.071 149.255 277.983 143.892 278.055 137.031C278.131 130.083 283.142 124.924 289.81 124.939C296.427 124.965 301.3 130.165 301.295 137.209Z" fill="#E4077F"/>
<path d="M117.327 58.5576C117.179 65.363 112.132 70.5575 105.709 70.5116C99.0262 70.4657 93.949 64.9806 94.0663 57.9306C94.1784 50.9978 99.2251 46.043 106.035 46.1653C112.831 46.2876 117.485 51.3904 117.327 58.5576Z" fill="#E4077F"/>
<path d="M36.6261 137.179C36.6414 130.068 41.6677 124.893 48.4934 124.955C54.9419 125.016 59.9325 130.302 59.9325 137.072C59.9325 144.045 54.9368 149.291 48.3099 149.275C41.5453 149.265 36.6108 144.157 36.6261 137.179Z" fill="#E4077F"/>
<path d="M243.926 280.647C243.88 287.661 238.941 292.682 232.181 292.59C225.508 292.504 220.548 287.217 220.656 280.315C220.763 273.535 226.074 268.127 232.507 268.249C239.104 268.371 243.972 273.658 243.926 280.647Z" fill="#E4077F"/>
<path d="M199.934 306.394C193.271 306.247 188.326 300.884 188.515 294.012C188.704 287.105 193.888 281.982 200.494 282.16C207.096 282.344 212.301 287.941 212.02 294.573C211.735 301.526 206.596 306.547 199.934 306.394Z" fill="#E4077F"/>
<path d="M36.6312 201.577C36.6414 194.675 41.7747 189.292 48.2844 189.363C54.8603 189.43 59.9783 194.813 59.9427 201.623C59.907 208.556 54.8909 213.766 48.2436 213.771C41.6371 213.771 36.6159 208.505 36.6312 201.577Z" fill="#E4077F"/>
<path d="M149.518 294.292C149.355 301.556 144.426 306.547 137.6 306.374C130.825 306.2 126.074 301.047 126.202 294.012C126.329 287.11 131.513 281.981 138.171 282.17C144.772 282.359 149.671 287.589 149.518 294.292Z" fill="#E4077F"/>
<path d="M188.541 44.5191C188.515 37.3876 193.455 32.346 200.443 32.3766C206.882 32.4072 211.984 37.6883 212.051 44.3968C212.117 51.1002 206.846 56.5597 200.28 56.5903C193.623 56.626 188.561 51.4213 188.541 44.5191Z" fill="#E4077F"/>
<path d="M117.332 280.34C117.276 287.727 112.576 292.625 105.582 292.585C98.909 292.544 94.0408 287.355 94.0867 280.32C94.1275 273.616 99.2659 268.223 105.597 268.249C112.336 268.274 117.383 273.474 117.332 280.34Z" fill="#E4077F"/>
<path d="M301.28 201.807C301.259 208.587 296.304 213.756 289.8 213.771C283.173 213.786 278.075 208.536 278.05 201.669C278.024 194.854 283.178 189.389 289.667 189.343C296.304 189.297 301.295 194.655 301.28 201.807Z" fill="#E4077F"/>
<path d="M149.503 44.4982C149.477 51.4208 144.456 56.6356 137.839 56.6153C131.157 56.5949 126.202 51.3953 126.212 44.4319C126.222 37.5196 131.126 32.3608 137.62 32.4219C144.808 32.4933 149.533 37.2953 149.503 44.4982Z" fill="#E4077F"/>
<path d="M137.931 20.8201C132.298 20.8201 127.996 16.5024 128.001 10.8594C128.006 5.201 132.314 0.806847 137.875 0.781359C143.391 0.755871 147.642 5.2061 147.596 10.9511C147.555 16.6197 143.442 20.8201 137.931 20.8201Z" fill="#E4077F"/>
<path d="M137.906 317.977C143.579 317.997 147.683 322.284 147.586 328.085C147.489 333.764 143.376 337.97 137.896 337.995C132.395 338.015 128.037 333.591 128.006 327.943C127.971 322.31 132.298 317.951 137.906 317.977Z" fill="#E4077F"/>
<path d="M210.027 10.9616C209.991 16.6454 205.714 20.8714 200.051 20.8153C194.586 20.7643 190.473 16.4874 190.462 10.8494C190.447 5.20127 194.826 0.72045 200.306 0.771427C205.842 0.827501 210.058 5.24715 210.027 10.9616Z" fill="#E4077F"/>
<path d="M200.178 317.962C205.781 317.931 210.032 322.244 210.027 327.948C210.022 333.606 205.709 338.005 200.168 338C194.79 337.995 190.559 333.672 190.452 328.08C190.345 322.335 194.52 317.992 200.178 317.962Z" fill="#E4077F"/>
<path d="M322.307 211.594C316.7 211.594 312.443 207.301 312.423 201.623C312.403 195.995 316.771 191.575 322.312 191.616C327.798 191.662 332.212 196.229 332.115 201.755C332.018 207.21 327.655 211.589 322.307 211.594Z" fill="#E4077F"/>
<path d="M15.6953 191.622C21.1345 191.571 25.4572 195.838 25.5592 201.369C25.6662 207.017 21.4505 211.498 15.9247 211.615C10.3938 211.727 5.97412 207.379 5.87726 201.736C5.7855 196.215 10.1949 191.678 15.6953 191.622Z" fill="#E4077F"/>
<path d="M15.7106 147.114C10.3734 147.129 5.95375 142.699 5.88238 137.275C5.81101 131.739 10.251 127.111 15.6545 127.085C21.16 127.055 25.6102 131.535 25.5745 137.082C25.5439 142.801 21.3129 147.098 15.7106 147.114Z" fill="#E4077F"/>
<path d="M321.879 147.119C316.364 146.91 312.168 142.271 312.433 136.679C312.703 130.98 317.164 126.825 322.725 127.09C327.991 127.34 332.289 132.05 332.12 137.387C331.942 142.934 327.318 147.323 321.879 147.119Z" fill="#E4077F"/>
<path d="M28.9899 258.329C29.1326 252.6 33.5064 248.404 39.1495 248.583C44.3643 248.746 48.5087 253.257 48.422 258.676C48.3303 264.543 44.0738 268.836 38.5123 268.667C32.7978 268.494 28.8472 264.207 28.9899 258.329Z" fill="#E4077F"/>
<path d="M245.69 34.2882C245.726 28.6706 250.003 24.2662 255.355 24.3478C260.86 24.4294 265.056 28.9459 264.974 34.696C264.888 40.4206 260.759 44.5854 255.238 44.5089C249.503 44.4273 245.654 40.3085 245.69 34.2882Z" fill="#E4077F"/>
<path d="M38.813 70.1144C44.2369 70.0329 48.3762 74.3301 48.3966 80.0599C48.417 85.7488 44.3592 90.0206 38.8487 90.1124C33.3433 90.2042 29.0918 85.9986 29.0052 80.3759C28.9083 74.2741 32.7978 70.2062 38.813 70.1144Z" fill="#E4077F"/>
<path d="M245.7 303.902C245.756 298.182 249.814 294.17 255.467 294.242C261.049 294.313 264.99 298.468 264.959 304.248C264.923 310.177 260.85 314.301 255.136 314.189C249.365 314.071 245.639 310.009 245.7 303.902Z" fill="#E4077F"/>
<path d="M82.673 44.4884C77.2134 44.5087 73.0742 40.2267 73.0589 34.5327C73.0436 28.8182 77.4224 24.2712 82.8667 24.3476C88.1988 24.4241 92.4248 28.8743 92.4452 34.4409C92.4706 40.3134 88.4333 44.468 82.673 44.4884Z" fill="#E4077F"/>
<path d="M92.4349 304.279C92.3941 310.106 88.474 314.169 82.8667 314.189C77.1063 314.214 72.9874 310.004 73.0792 304.172C73.171 298.249 77.2287 294.186 82.9737 294.262C88.5658 294.334 92.4757 298.473 92.4349 304.279Z" fill="#E4077F"/>
<path d="M308.997 79.9883C309.008 85.8964 304.991 90.102 299.332 90.1173C293.705 90.1326 289.764 85.8863 289.805 79.866C289.846 74.1107 293.832 70.0734 299.49 70.0479C305.037 70.0275 308.987 74.1566 308.997 79.9883Z" fill="#E4077F"/>
<path d="M309.013 258.752C308.957 264.65 304.848 268.8 299.159 268.698C293.715 268.601 289.713 264.252 289.8 258.528C289.886 252.768 293.944 248.547 299.383 248.552C305.042 248.562 309.069 252.824 309.013 258.752Z" fill="#E4077F"/>
</g>
<defs>
<clipPath id="clip0_723_45">
<rect width="338" height="338" fill="white"/>
</clipPath>
</defs>
</svg>
